<?xml version="1.0" encoding="utf-8"?>
<!-- Generator: Adobe Illustrator 24.0.2, SVG Export Plug-In . SVG Version: 6.00 Build 0)  -->
<svg version="1.1" id="Layer_1" xmlns="http://www.w3.org/2000/svg" xmlns:xlink="http://www.w3.org/1999/xlink" x="0px" y="0px"
	 width="48px" height="48px" viewBox="0 0 48 48" enable-background="new 0 0 48 48" xml:space="preserve">
<path fill="#FFFFFF" d="M44,6.9H4c-2.2,0-4,1.8-4,3.9v26.3c0,2.2,1.8,4,4,4h40c2.2,0,4-1.8,4-4V10.9C48,8.7,46.2,6.9,44,6.9z
	 M25.8,25.6c-1,0.8-2.6,0.8-3.5,0L3,8.9c0.3-0.2,0.6-0.3,1-0.3h40c0.3,0,0.7,0.1,0.9,0.2L25.8,25.6z M21.1,26.9
	c0.8,0.7,1.8,1.1,2.9,1.1s2.1-0.4,2.9-1.1l19.2-16.8c0.1,0.2,0.1,0.5,0.1,0.7v26.3c0,1.2-1,2.2-2.2,2.2H4c-1.2,0-2.2-1-2.2-2.2V10.9
	c0-0.2,0-0.5,0.1-0.7L21.1,26.9z"/>
</svg>
