<?xml version="1.0" encoding="utf-8"?>
<!-- Generator: Adobe Illustrator 24.0.2, SVG Export Plug-In . SVG Version: 6.00 Build 0)  -->
<svg version="1.1" id="Layer_1" xmlns="http://www.w3.org/2000/svg" xmlns:xlink="http://www.w3.org/1999/xlink" x="0px" y="0px"
	 width="48px" height="48px" viewBox="0 0 48 48" enable-background="new 0 0 48 48" xml:space="preserve">
<g>
	<path fill="#FFFFFF" d="M44.4,33.5c-6.8-5.5-9.2-3-12.1-0.2l-0.5,0.5c-0.8,0.8-2.9-0.3-4.1-1c-1.7-1.1-4-3.1-6.7-5.8
		c-8.2-8.2-7.3-10.4-6.9-10.9l0.5-0.5c2.9-2.8,5.3-5.2-0.2-12.1C12.6,1.2,10.8,0.1,8.9,0C6.2-0.1,4.2,2.1,2.4,4
		C2.1,4.3,1.8,4.6,1.5,4.9c-2,2-2,6.3,0,11.6C3.7,22.3,8,28.6,13.7,34.3s12,10,17.8,12.2c2.7,1,5.1,1.5,7.1,1.5s3.6-0.5,4.5-1.5
		c0.3-0.3,0.6-0.6,0.9-0.9c1.9-1.8,4.1-3.9,4-6.6C47.9,37.2,46.8,35.4,44.4,33.5z M42.9,44.5c-0.3,0.3-0.6,0.6-0.9,0.9
		c-1.5,1.5-5.4,1.3-9.9-0.4c-5.6-2.1-11.7-6.3-17.2-11.8C9.3,27.6,5.1,21.5,3,15.9C1.3,11.4,1.1,7.5,2.6,6c0.3-0.3,0.6-0.6,0.9-0.9
		C5,3.5,6.8,1.7,8.7,1.7h0.1c1.4,0.1,2.8,1.1,4.3,2.9c4.6,5.7,3,7.3,0.3,9.9L13,15c-2.1,2.1,0,6.3,6.9,13.2C22.7,31,25,33,27,34.3
		c2.8,1.8,4.8,2.1,6.1,0.8l0.5-0.5c2.6-2.7,4.2-4.3,9.9,0.3c1.9,1.5,2.9,3,2.9,4.3C46.5,41.1,44.6,42.9,42.9,44.5z"/>
	<path fill="#FFFFFF" d="M37.8,24.5h1.5c0-8.7-7.1-15.8-15.8-15.8v1.5C31.4,10.2,37.8,16.6,37.8,24.5z"/>
	<path fill="#FFFFFF" d="M46.2,22.5h1.5c0-12.3-10-22.2-22.2-22.2v1.5C36.9,1.8,46.2,11.1,46.2,22.5z"/>
</g>
</svg>
